# xmcd
#
# Track frame offsets: 
#        150
#        18736
#        34897
#        56729
#        69383
#        91188
#        105439
#        125065
#        147625
#        165749
#
# Disc length: 2492 seconds
#
# Revision: 0
# Processed by: cddbd v1.5.2PL0 Copyright (c) Steve Scherf et al.
# Submitted via: ExactAudioCopy v0.99pb5
#
DISCID=8e09ba0a
DTITLE=Shiregreen - Reaching The Shore
DYEAR=2009
DGENRE=Jazz
TTITLE0=Reaching The Shore
TTITLE1=To The Waterside
TTITLE2=Dreamstone
TTITLE3=Simple Tune
TTITLE4=Life Of My Own
TTITLE5=What Does It Take
TTITLE6=Waiting Just For You
TTITLE7=When Our Love Shines
TTITLE8=Light On The Horizon
TTITLE9=My Father's Heart
EXTD=
EXTT0=
EXTT1=
EXTT2=
EXTT3=
EXTT4=
EXTT5=
EXTT6=
EXTT7=
EXTT8=
EXTT9=
PLAYORDER=
